<mxfile host="app.diagrams.net" modified="2024-05-19T03:26:08.241Z" agent="Mozilla/5.0 (Windows NT 10.0; Win64; x64) AppleWebKit/537.36 (KHTML, like Gecko) Chrome/124.0.0.0 Safari/537.36" etag="boxYPt14q5Xpj3II4Pfq" version="24.4.4" type="google">
  <diagram name="Page-1" id="2YBvvXClWsGukQMizWep">
    <mxGraphModel grid="1" page="1" gridSize="10" guides="1" tooltips="1" connect="1" arrows="1" fold="1" pageScale="1" pageWidth="850" pageHeight="1100" math="0" shadow="0">
      <root>
        <mxCell id="0" />
        <mxCell id="1" parent="0" />
        <mxCell id="aM9ryv3xv72pqoxQDRHE-1" value="Registered User" style="shape=umlLifeline;perimeter=lifelinePerimeter;whiteSpace=wrap;html=1;container=0;dropTarget=0;collapsible=0;recursiveResize=0;outlineConnect=0;portConstraint=eastwest;newEdgeStyle={&quot;edgeStyle&quot;:&quot;elbowEdgeStyle&quot;,&quot;elbow&quot;:&quot;vertical&quot;,&quot;curved&quot;:0,&quot;rounded&quot;:0};" vertex="1" parent="1">
          <mxGeometry x="40" y="40" width="100" height="480" as="geometry" />
        </mxCell>
        <mxCell id="aM9ryv3xv72pqoxQDRHE-2" value="" style="html=1;points=[];perimeter=orthogonalPerimeter;outlineConnect=0;targetShapes=umlLifeline;portConstraint=eastwest;newEdgeStyle={&quot;edgeStyle&quot;:&quot;elbowEdgeStyle&quot;,&quot;elbow&quot;:&quot;vertical&quot;,&quot;curved&quot;:0,&quot;rounded&quot;:0};" vertex="1" parent="aM9ryv3xv72pqoxQDRHE-1">
          <mxGeometry x="45" y="80" width="10" height="80" as="geometry" />
        </mxCell>
        <mxCell id="Y58eeC3jA7VNEDhYGH9c-22" value="" style="html=1;points=[];perimeter=orthogonalPerimeter;outlineConnect=0;targetShapes=umlLifeline;portConstraint=eastwest;newEdgeStyle={&quot;edgeStyle&quot;:&quot;elbowEdgeStyle&quot;,&quot;elbow&quot;:&quot;vertical&quot;,&quot;curved&quot;:0,&quot;rounded&quot;:0};" vertex="1" parent="aM9ryv3xv72pqoxQDRHE-1">
          <mxGeometry x="45" y="320" width="10" height="110" as="geometry" />
        </mxCell>
        <mxCell id="aM9ryv3xv72pqoxQDRHE-5" value="Administrator" style="shape=umlLifeline;perimeter=lifelinePerimeter;whiteSpace=wrap;html=1;container=0;dropTarget=0;collapsible=0;recursiveResize=0;outlineConnect=0;portConstraint=eastwest;newEdgeStyle={&quot;edgeStyle&quot;:&quot;elbowEdgeStyle&quot;,&quot;elbow&quot;:&quot;vertical&quot;,&quot;curved&quot;:0,&quot;rounded&quot;:0};" vertex="1" parent="1">
          <mxGeometry x="220" y="40" width="100" height="480" as="geometry" />
        </mxCell>
        <mxCell id="aM9ryv3xv72pqoxQDRHE-6" value="" style="html=1;points=[];perimeter=orthogonalPerimeter;outlineConnect=0;targetShapes=umlLifeline;portConstraint=eastwest;newEdgeStyle={&quot;edgeStyle&quot;:&quot;elbowEdgeStyle&quot;,&quot;elbow&quot;:&quot;vertical&quot;,&quot;curved&quot;:0,&quot;rounded&quot;:0};" vertex="1" parent="aM9ryv3xv72pqoxQDRHE-5">
          <mxGeometry x="45" y="70" width="10" height="370" as="geometry" />
        </mxCell>
        <mxCell id="aM9ryv3xv72pqoxQDRHE-8" value="" style="html=1;verticalAlign=bottom;endArrow=open;dashed=1;endSize=8;edgeStyle=elbowEdgeStyle;elbow=vertical;curved=0;rounded=0;" edge="1" parent="1" source="Y58eeC3jA7VNEDhYGH9c-5">
          <mxGeometry relative="1" as="geometry">
            <mxPoint x="276" y="264" as="targetPoint" />
            <Array as="points">
              <mxPoint x="371" y="264" />
            </Array>
            <mxPoint x="446" y="264" as="sourcePoint" />
          </mxGeometry>
        </mxCell>
        <mxCell id="aM9ryv3xv72pqoxQDRHE-10" value="Navigates to Statistics Menu" style="html=1;verticalAlign=bottom;endArrow=open;dashed=1;endSize=8;edgeStyle=elbowEdgeStyle;elbow=vertical;curved=0;rounded=0;" edge="1" parent="1">
          <mxGeometry relative="1" as="geometry">
            <mxPoint x="265" y="141" as="targetPoint" />
            <Array as="points">
              <mxPoint x="180" y="141" />
            </Array>
            <mxPoint x="100" y="141" as="sourcePoint" />
          </mxGeometry>
        </mxCell>
        <mxCell id="Y58eeC3jA7VNEDhYGH9c-1" value="System" style="shape=umlLifeline;perimeter=lifelinePerimeter;whiteSpace=wrap;html=1;container=0;dropTarget=0;collapsible=0;recursiveResize=0;outlineConnect=0;portConstraint=eastwest;newEdgeStyle={&quot;edgeStyle&quot;:&quot;elbowEdgeStyle&quot;,&quot;elbow&quot;:&quot;vertical&quot;,&quot;curved&quot;:0,&quot;rounded&quot;:0};" vertex="1" parent="1">
          <mxGeometry x="400" y="40" width="100" height="480" as="geometry" />
        </mxCell>
        <mxCell id="Y58eeC3jA7VNEDhYGH9c-2" value="" style="html=1;points=[];perimeter=orthogonalPerimeter;outlineConnect=0;targetShapes=umlLifeline;portConstraint=eastwest;newEdgeStyle={&quot;edgeStyle&quot;:&quot;elbowEdgeStyle&quot;,&quot;elbow&quot;:&quot;vertical&quot;,&quot;curved&quot;:0,&quot;rounded&quot;:0};" vertex="1" parent="Y58eeC3jA7VNEDhYGH9c-1">
          <mxGeometry x="45" y="150" width="10" height="220" as="geometry" />
        </mxCell>
        <mxCell id="Y58eeC3jA7VNEDhYGH9c-4" value="Database" style="shape=umlLifeline;perimeter=lifelinePerimeter;whiteSpace=wrap;html=1;container=0;dropTarget=0;collapsible=0;recursiveResize=0;outlineConnect=0;portConstraint=eastwest;newEdgeStyle={&quot;edgeStyle&quot;:&quot;elbowEdgeStyle&quot;,&quot;elbow&quot;:&quot;vertical&quot;,&quot;curved&quot;:0,&quot;rounded&quot;:0};" vertex="1" parent="1">
          <mxGeometry x="580" y="40" width="100" height="480" as="geometry" />
        </mxCell>
        <mxCell id="Y58eeC3jA7VNEDhYGH9c-5" value="" style="html=1;points=[];perimeter=orthogonalPerimeter;outlineConnect=0;targetShapes=umlLifeline;portConstraint=eastwest;newEdgeStyle={&quot;edgeStyle&quot;:&quot;elbowEdgeStyle&quot;,&quot;elbow&quot;:&quot;vertical&quot;,&quot;curved&quot;:0,&quot;rounded&quot;:0};" vertex="1" parent="Y58eeC3jA7VNEDhYGH9c-4">
          <mxGeometry x="45" y="160" width="10" height="160" as="geometry" />
        </mxCell>
        <mxCell id="Y58eeC3jA7VNEDhYGH9c-10" value="Selects Statistics Type" style="html=1;verticalAlign=bottom;endArrow=open;dashed=1;endSize=8;edgeStyle=elbowEdgeStyle;elbow=vertical;curved=0;rounded=0;" edge="1" parent="1">
          <mxGeometry relative="1" as="geometry">
            <mxPoint x="263" y="184" as="targetPoint" />
            <Array as="points">
              <mxPoint x="178" y="184" />
            </Array>
            <mxPoint x="98" y="184" as="sourcePoint" />
          </mxGeometry>
        </mxCell>
        <mxCell id="Y58eeC3jA7VNEDhYGH9c-11" value="Verifies User Role" style="html=1;verticalAlign=bottom;endArrow=open;dashed=1;endSize=8;edgeStyle=elbowEdgeStyle;elbow=vertical;curved=0;rounded=0;" edge="1" parent="1" target="Y58eeC3jA7VNEDhYGH9c-5">
          <mxGeometry relative="1" as="geometry">
            <mxPoint x="610" y="223" as="targetPoint" />
            <Array as="points">
              <mxPoint x="357" y="223" />
            </Array>
            <mxPoint x="277" y="223" as="sourcePoint" />
          </mxGeometry>
        </mxCell>
        <mxCell id="Y58eeC3jA7VNEDhYGH9c-12" value="Fetches Statistical Data" style="html=1;verticalAlign=bottom;endArrow=open;dashed=1;endSize=8;edgeStyle=elbowEdgeStyle;elbow=vertical;curved=0;rounded=0;" edge="1" parent="1">
          <mxGeometry relative="1" as="geometry">
            <mxPoint x="624.5" y="301" as="targetPoint" />
            <Array as="points">
              <mxPoint x="354" y="301" />
            </Array>
            <mxPoint x="274" y="301" as="sourcePoint" />
          </mxGeometry>
        </mxCell>
        <mxCell id="Y58eeC3jA7VNEDhYGH9c-13" value="" style="html=1;verticalAlign=bottom;endArrow=open;dashed=1;endSize=8;edgeStyle=elbowEdgeStyle;elbow=vertical;curved=0;rounded=0;" edge="1" parent="1">
          <mxGeometry relative="1" as="geometry">
            <mxPoint x="276" y="339" as="targetPoint" />
            <Array as="points">
              <mxPoint x="371" y="339" />
            </Array>
            <mxPoint x="625" y="339" as="sourcePoint" />
          </mxGeometry>
        </mxCell>
        <mxCell id="Y58eeC3jA7VNEDhYGH9c-14" value="" style="html=1;verticalAlign=bottom;endArrow=open;dashed=1;endSize=8;edgeStyle=elbowEdgeStyle;elbow=horizontal;curved=0;rounded=0;entryX=0.5;entryY=0.182;entryDx=0;entryDy=0;entryPerimeter=0;" edge="1" parent="1">
          <mxGeometry relative="1" as="geometry">
            <mxPoint x="96" y="380.02" as="targetPoint" />
            <Array as="points">
              <mxPoint x="192" y="379" />
            </Array>
            <mxPoint x="260" y="380" as="sourcePoint" />
          </mxGeometry>
        </mxCell>
        <mxCell id="Y58eeC3jA7VNEDhYGH9c-15" value="Statistics Data" style="text;html=1;align=center;verticalAlign=middle;resizable=0;points=[];autosize=1;strokeColor=none;fillColor=none;" vertex="1" parent="1">
          <mxGeometry x="120" y="358" width="100" height="30" as="geometry" />
        </mxCell>
        <mxCell id="Y58eeC3jA7VNEDhYGH9c-17" value="Displays&amp;nbsp;&lt;div&gt;Statistics&lt;/div&gt;" style="text;html=1;align=center;verticalAlign=middle;resizable=0;points=[];autosize=1;strokeColor=none;fillColor=none;" vertex="1" parent="1">
          <mxGeometry x="520" y="364" width="70" height="40" as="geometry" />
        </mxCell>
        <mxCell id="Y58eeC3jA7VNEDhYGH9c-20" value="" style="html=1;verticalAlign=bottom;endArrow=open;dashed=1;endSize=8;edgeStyle=elbowEdgeStyle;elbow=horizontal;curved=0;rounded=0;" edge="1" parent="1">
          <mxGeometry relative="1" as="geometry">
            <mxPoint x="455" y="379" as="targetPoint" />
            <Array as="points">
              <mxPoint x="517" y="379" />
            </Array>
            <mxPoint x="451.5" y="389" as="sourcePoint" />
          </mxGeometry>
        </mxCell>
        <mxCell id="Y58eeC3jA7VNEDhYGH9c-21" value="Reviews/Filters&lt;div&gt;Statistics&lt;/div&gt;" style="html=1;verticalAlign=bottom;endArrow=open;dashed=1;endSize=8;edgeStyle=elbowEdgeStyle;elbow=vertical;curved=0;rounded=0;" edge="1" parent="1">
          <mxGeometry relative="1" as="geometry">
            <mxPoint x="262" y="421" as="targetPoint" />
            <Array as="points">
              <mxPoint x="177" y="421" />
            </Array>
            <mxPoint x="97" y="421" as="sourcePoint" />
          </mxGeometry>
        </mxCell>
        <mxCell id="Y58eeC3jA7VNEDhYGH9c-26" value="Additional Options&lt;div&gt;(Export, Report)&lt;/div&gt;" style="html=1;verticalAlign=bottom;endArrow=open;dashed=1;endSize=8;edgeStyle=elbowEdgeStyle;elbow=vertical;curved=0;rounded=0;" edge="1" parent="1">
          <mxGeometry relative="1" as="geometry">
            <mxPoint x="264" y="464" as="targetPoint" />
            <Array as="points">
              <mxPoint x="179" y="464" />
            </Array>
            <mxPoint x="99" y="464" as="sourcePoint" />
          </mxGeometry>
        </mxCell>
      </root>
    </mxGraphModel>
  </diagram>
</mxfile>
